<svg width="16" height="20" viewBox="0 0 16 20" fill="none" xmlns="http://www.w3.org/2000/svg">
<path fill-rule="evenodd" clip-rule="evenodd" d="M14 0H7.24C6.44462 0.000700208 5.68207 0.31723 5.12 0.88L0.88 5.12C0.31723 5.68207 0.000700208 6.44462 0 7.24V18C0 19.1046 0.89543 20 2 20H14C15.1046 20 16 19.1046 16 18V2C16 0.89543 15.1046 0 14 0ZM2 18V8H7C7.55228 8 8 7.55228 8 7V2H14V18H2ZM11 12.62V13.38C11 13.6561 10.7761 13.88 10.5 13.88H8.88V15.5C8.88 15.7761 8.65614 16 8.38 16H7.62C7.34386 16 7.12 15.7761 7.12 15.5V13.88H5.5C5.22386 13.88 5 13.6561 5 13.38V12.62C5 12.3439 5.22386 12.12 5.5 12.12H7.12V10.5C7.12 10.2239 7.34386 10 7.62 10H8.38C8.65614 10 8.88 10.2239 8.88 10.5V12.12H10.5C10.7761 12.12 11 12.3439 11 12.62Z" fill="#7F85A2"/>
</svg>
