<svg width="24" height="24" viewBox="0 0 24 24" fill="none" xmlns="http://www.w3.org/2000/svg">
<path d="M11.28 8.21983C11.4205 8.07914 11.6112 8.00001 11.81 7.99983L12.19 7.99983C12.3884 8.00214 12.5783 8.08095 12.72 8.21983L17.85 13.3598C17.9447 13.4537 17.9979 13.5815 17.9979 13.7148C17.9979 13.8482 17.9447 13.976 17.85 14.0698L17.14 14.7798C17.0479 14.8739 16.9217 14.9269 16.79 14.9269C16.6583 14.9269 16.5322 14.8739 16.44 14.7798L12 10.3298L7.56003 14.7798C7.46614 14.8745 7.33834 14.9277 7.20503 14.9277C7.07171 14.9277 6.94391 14.8745 6.85003 14.7798L6.15003 14.0698C6.05537 13.976 6.00213 13.8482 6.00213 13.7148C6.00213 13.5815 6.05537 13.4537 6.15003 13.3598L11.28 8.21983Z" fill="#5D667B"/>
</svg>
