<svg width="24" height="24" viewBox="0 0 24 24" fill="none" xmlns="http://www.w3.org/2000/svg">
<path d="M12.72 15.7802C12.5795 15.9209 12.3888 16 12.19 16.0002H11.81C11.6116 15.9979 11.4217 15.919 11.28 15.7802L6.14997 10.6402C6.05532 10.5463 6.00208 10.4185 6.00208 10.2852C6.00208 10.1518 6.05532 10.024 6.14997 9.93016L6.85997 9.22016C6.95214 9.1261 7.07828 9.07309 7.20997 9.07309C7.34166 9.07309 7.46781 9.1261 7.55997 9.22016L12 13.6702L16.44 9.22016C16.5339 9.12551 16.6617 9.07227 16.795 9.07227C16.9283 9.07227 17.0561 9.12551 17.15 9.22016L17.85 9.93016C17.9446 10.024 17.9979 10.1518 17.9979 10.2852C17.9979 10.4185 17.9446 10.5463 17.85 10.6402L12.72 15.7802Z" fill="#5D667B"/>
</svg>
