<svg width="25" height="24" viewBox="0 0 25 24" fill="none" xmlns="http://www.w3.org/2000/svg">
<g clip-path="url(#clip0_1162_4204)">
<path d="M6.04664 14.4186L5.23971 17.431L2.29041 17.4934C1.40901 15.8586 0.909058 13.9881 0.909058 12.0005C0.909058 10.0784 1.3765 8.26589 2.20507 6.66992H2.2057L4.8314 7.15131L5.98162 9.76125C5.74088 10.4631 5.60967 11.2165 5.60967 12.0005C5.60976 12.8513 5.76388 13.6665 6.04664 14.4186Z" fill="#FBBB00"/>
<path d="M23.8883 9.83496C24.0214 10.5361 24.0908 11.2602 24.0908 12.0003C24.0908 12.8301 24.0036 13.6396 23.8374 14.4204C23.2731 17.0774 21.7988 19.3975 19.7564 21.0393L19.7558 21.0387L16.4485 20.8699L15.9805 17.948C17.3357 17.1532 18.3948 15.9094 18.9527 14.4204H12.7548V9.83496H19.0431H23.8883Z" fill="#518EF8"/>
<path d="M19.7553 21.0381L19.7559 21.0388C17.7695 22.6354 15.2462 23.5907 12.4995 23.5907C8.08537 23.5907 4.24765 21.1235 2.28992 17.4927L6.04614 14.418C7.02499 17.0304 9.54506 18.89 12.4995 18.89C13.7694 18.89 14.9591 18.5467 15.9799 17.9474L19.7553 21.0381Z" fill="#28B446"/>
<path d="M19.8983 3.07762L16.1433 6.15175C15.0868 5.49134 13.8379 5.10984 12.4999 5.10984C9.47857 5.10984 6.91136 7.0548 5.98155 9.76087L2.20559 6.66954H2.20496C4.13403 2.95026 8.02015 0.40918 12.4999 0.40918C15.3122 0.40918 17.8909 1.41098 19.8983 3.07762Z" fill="#F14336"/>
</g>
<defs>
<clipPath id="clip0_1162_4204">
<rect width="23.1818" height="23.1818" fill="white" transform="translate(0.909058 0.40918)"/>
</clipPath>
</defs>
</svg>
