<svg width="25" height="24" viewBox="0 0 25 24" fill="none" xmlns="http://www.w3.org/2000/svg">
<path d="M4.28886 7.5603C4.08469 7.78252 3.79673 7.91678 3.49211 7.88437C3.18748 7.93529 2.89304 7.81492 2.6773 7.5603L0.825414 5.70846C0.391529 5.31494 0.391529 4.61124 0.825414 4.17745C1.25925 3.74366 1.96295 3.74366 2.39674 4.17745L3.42035 5.1992L5.97218 2.36774C6.37958 1.91173 7.08328 1.87469 7.54161 2.28534C7.99531 2.69598 8.03235 3.39829 7.62032 3.85477L4.28886 7.5603ZM4.28886 14.9676C4.08469 15.1899 3.79673 15.3241 3.49211 15.2917C3.18748 15.3426 2.89304 15.2223 2.6773 14.9676L0.825414 13.1158C0.391529 12.7223 0.391529 12.0186 0.825414 11.5834C1.25925 11.1529 1.96295 11.1529 2.39674 11.5834L3.42035 12.6066L5.97218 9.77324C6.37958 9.31954 7.08328 9.28251 7.54161 9.69454C7.99531 10.1019 8.03235 10.8056 7.62032 11.264L4.28886 14.9676ZM0.5 19.7778C0.5 18.551 1.4949 17.5556 2.72221 17.5556C3.94951 17.5556 4.94441 18.551 4.94441 19.7778C4.94441 21.0046 3.94951 22 2.72221 22C1.4949 22 0.5 21.0046 0.5 19.7778Z" fill="currentColor"/>
<path opacity="0.4" d="M9.38882 18.2961H22.722C23.5415 18.2961 24.2035 18.9582 24.2035 19.7776C24.2035 20.5971 23.5415 21.2591 22.722 21.2591H9.38882C8.56938 21.2591 7.90735 20.5971 7.90735 19.7776C7.90735 18.9582 8.56938 18.2961 9.38882 18.2961ZM12.3518 10.8888H22.722C23.5415 10.8888 24.2035 11.5508 24.2035 12.3703C24.2035 13.1897 23.5415 13.8517 22.722 13.8517H12.3518C11.5323 13.8517 10.8703 13.1897 10.8703 12.3703C10.8703 11.5508 11.5323 10.8888 12.3518 10.8888ZM12.3518 6.44439C11.5323 6.44439 10.8703 5.78235 10.8703 4.96292C10.8703 4.14487 11.5323 3.48145 12.3518 3.48145H22.722C23.5415 3.48145 24.2035 4.14487 24.2035 4.96292C24.2035 5.78235 23.5415 6.44439 22.722 6.44439H12.3518Z" fill="currentColor"/>
</svg>
