<svg width="14" height="14" viewBox="0 0 14 14" fill="none" xmlns="http://www.w3.org/2000/svg">
<path fill-rule="evenodd" clip-rule="evenodd" d="M7.67899 3.65214C6.74811 3.40272 5.76249 3.45114 4.86054 3.7906C3.9586 4.13007 3.18564 4.74354 2.65023 5.54484C2.11482 6.34613 1.84385 7.29502 1.87538 8.25821C1.90691 9.22141 2.23936 10.1505 2.82603 10.9151C3.41271 11.6797 4.22413 12.2413 5.14635 12.521C6.06856 12.8008 7.05525 12.7846 7.96782 12.4748C8.88039 12.1651 9.673 11.5772 10.2343 10.7939C10.7957 10.0105 11.0976 9.07102 11.0976 8.1073C11.0976 7.7538 11.3841 7.46723 11.7376 7.46723C12.0911 7.46723 12.3777 7.7538 12.3777 8.1073C12.3777 9.33849 11.992 10.5388 11.2749 11.5395C10.5578 12.5403 9.54515 13.2913 8.3793 13.687C7.21345 14.0828 5.95292 14.1034 4.77474 13.746C3.59657 13.3886 2.55993 12.6712 1.81043 11.6944C1.06093 10.7176 0.636213 9.53063 0.59593 8.3001C0.555646 7.06957 0.90182 5.85733 1.58583 4.83363C2.26985 3.80993 3.25734 3.0262 4.40961 2.59252C5.56189 2.15883 6.82108 2.09697 8.01031 2.41563C8.35177 2.50712 8.5544 2.85809 8.46291 3.19955C8.37142 3.541 8.02045 3.74364 7.67899 3.65214Z" fill="#5D667B"/>
<path d="M5.20746 6.82706C5.20746 7.29839 4.82537 7.68048 4.35404 7.68048C3.8827 7.68048 3.50061 7.29839 3.50061 6.82706C3.50061 6.35572 3.8827 5.97363 4.35404 5.97363C4.82537 5.97363 5.20746 6.35572 5.20746 6.82706Z" fill="#5D667B"/>
<path d="M8.62116 6.82706C8.62116 7.29839 8.23907 7.68048 7.76773 7.68048C7.2964 7.68048 6.91431 7.29839 6.91431 6.82706C6.91431 6.35572 7.2964 5.97363 7.76773 5.97363C8.23907 5.97363 8.62116 6.35572 8.62116 6.82706Z" fill="#5D667B"/>
<path d="M8.62193 8.90625C8.85759 8.90625 9.05225 9.09859 9.01321 9.331C8.98122 9.52144 8.92773 9.70812 8.85348 9.88737C8.72464 10.1984 8.53579 10.4811 8.29772 10.7191C8.05965 10.9572 7.77702 11.146 7.46597 11.2749C7.15492 11.4037 6.82153 11.47 6.48485 11.47C6.14817 11.47 5.81478 11.4037 5.50373 11.2749C5.19268 11.146 4.91005 10.9572 4.67198 10.7191C4.43391 10.4811 4.24506 10.1984 4.11622 9.88737C4.04197 9.70811 3.98848 9.52144 3.95649 9.331C3.91744 9.09859 4.1121 8.90625 4.34777 8.90625L6.48485 8.90625H8.62193Z" fill="#5D667B"/>
<path fill-rule="evenodd" clip-rule="evenodd" d="M8.62115 2.77386C8.62115 2.42036 8.90772 2.13379 9.26122 2.13379H13.1016C13.4551 2.13379 13.7417 2.42036 13.7417 2.77386C13.7417 3.12736 13.4551 3.41393 13.1016 3.41393H9.26122C8.90772 3.41393 8.62115 3.12736 8.62115 2.77386Z" fill="#5D667B"/>
<path fill-rule="evenodd" clip-rule="evenodd" d="M10.9681 -2.79783e-08C11.3216 -1.25263e-08 11.6082 0.286569 11.6082 0.640069L11.6082 4.48048C11.6082 4.83398 11.3216 5.12055 10.9681 5.12055C10.6146 5.12055 10.328 4.83398 10.328 4.48048L10.328 0.640069C10.328 0.286568 10.6146 -4.34303e-08 10.9681 -2.79783e-08Z" fill="#5D667B"/>
</svg>
