<svg width="25" height="24" viewBox="0 0 25 24" fill="none" xmlns="http://www.w3.org/2000/svg">
<path d="M22.0436 19.3322L17.3677 14.6562C16.7805 15.5274 16.0293 16.279 15.1578 16.8661L19.8338 21.542C20.4439 22.1522 21.4334 22.1522 22.0436 21.542C22.653 20.9338 22.653 19.9416 22.0436 19.3322Z" fill="currentColor"/>
<path opacity="0.4" d="M10.5901 2C6.13761 2 2.5 5.638 2.5 10.1252C2.5 14.6125 6.13761 18.2505 10.5901 18.2505C15.0426 18.2505 18.7153 14.6125 18.7153 10.1252C18.7153 5.638 15.1137 2 10.5901 2ZM10.5901 15.1254C7.83298 15.1254 5.58994 12.8824 5.58994 10.1252C5.58994 7.36813 7.83298 5.12509 10.5901 5.12509C13.3472 5.12509 15.5902 7.36813 15.5902 10.1252C15.5902 12.8831 13.3831 15.1254 10.5901 15.1254Z" fill="currentColor"/>
</svg>
