<svg width="24" height="24" viewBox="0 0 19 18" fill="none" xmlns="http://www.w3.org/2000/svg">
<path d="M18.9675 0.949039L12.9783 17.6706C12.9069 17.8682 12.7193 17.9999 12.5092 18H12.3495C12.1534 18 11.9748 17.8874 11.8903 17.7105L9.53456 12.719C9.18768 11.9831 9.32194 11.1103 9.87394 10.5128L12.8685 7.23833C13.0523 7.04551 13.0523 6.74232 12.8685 6.5495L12.4892 6.17015C12.2964 5.98633 11.9932 5.98633 11.8004 6.17015L8.52638 9.16505C7.92887 9.71711 7.05618 9.85139 6.32038 9.50447L1.32943 7.14848C1.13696 7.076 1.007 6.89483 1.00002 6.68926V6.52953C0.982347 6.30492 1.11732 6.09631 1.32943 6.0204L18.0491 0.0306031C18.2289 -0.0354106 18.4306 0.00725579 18.5682 0.140416L18.8277 0.399974C18.9837 0.536262 19.0393 0.754748 18.9675 0.949039Z" fill="#4F67FF" fill-opacity="0.5"/>
</svg>
